<svg width="24" height="25" viewBox="0 0 24 25" fill="none" xmlns="http://www.w3.org/2000/svg">
<rect y="0.5" width="24" height="24" rx="8" fill="#1BDD5D"/>
<path d="M18.3538 9.85375L10.3538 17.8538C10.3073 17.9002 10.2522 17.9371 10.1915 17.9623C10.1308 17.9874 10.0657 18.0004 10 18.0004C9.9343 18.0004 9.86923 17.9874 9.80853 17.9623C9.74783 17.9371 9.69269 17.9002 9.64625 17.8538L6.14625 14.3537C6.05243 14.2599 5.99973 14.1327 5.99973 14C5.99973 13.8673 6.05243 13.7401 6.14625 13.6462C6.24007 13.5524 6.36732 13.4997 6.5 13.4997C6.63269 13.4997 6.75993 13.5524 6.85375 13.6462L10 16.7931L17.6463 9.14625C17.7401 9.05243 17.8673 8.99972 18 8.99972C18.1327 8.99972 18.2599 9.05243 18.3538 9.14625C18.4476 9.24007 18.5003 9.36732 18.5003 9.5C18.5003 9.63268 18.4476 9.75993 18.3538 9.85375Z" fill="#0F1117"/>
</svg>
