<svg width="24" height="25" viewBox="0 0 24 25" fill="none" xmlns="http://www.w3.org/2000/svg">
<rect y="0.5" width="24" height="24" rx="8" fill="#DF1818"/>
<path d="M17.5 7.5H15V7C15 6.60218 14.842 6.22064 14.5607 5.93934C14.2794 5.65804 13.8978 5.5 13.5 5.5H10.5C10.1022 5.5 9.72064 5.65804 9.43934 5.93934C9.15804 6.22064 9 6.60218 9 7V7.5H6.5C6.36739 7.5 6.24021 7.55268 6.14645 7.64645C6.05268 7.74021 6 7.86739 6 8C6 8.13261 6.05268 8.25979 6.14645 8.35355C6.24021 8.44732 6.36739 8.5 6.5 8.5H7V17.5C7 17.7652 7.10536 18.0196 7.29289 18.2071C7.48043 18.3946 7.73478 18.5 8 18.5H16C16.2652 18.5 16.5196 18.3946 16.7071 18.2071C16.8946 18.0196 17 17.7652 17 17.5V8.5H17.5C17.6326 8.5 17.7598 8.44732 17.8536 8.35355C17.9473 8.25979 18 8.13261 18 8C18 7.86739 17.9473 7.74021 17.8536 7.64645C17.7598 7.55268 17.6326 7.5 17.5 7.5ZM10 7C10 6.86739 10.0527 6.74021 10.1464 6.64645C10.2402 6.55268 10.3674 6.5 10.5 6.5H13.5C13.6326 6.5 13.7598 6.55268 13.8536 6.64645C13.9473 6.74021 14 6.86739 14 7V7.5H10V7ZM16 17.5H8V8.5H16V17.5ZM11 11V15C11 15.1326 10.9473 15.2598 10.8536 15.3536C10.7598 15.4473 10.6326 15.5 10.5 15.5C10.3674 15.5 10.2402 15.4473 10.1464 15.3536C10.0527 15.2598 10 15.1326 10 15V11C10 10.8674 10.0527 10.7402 10.1464 10.6464C10.2402 10.5527 10.3674 10.5 10.5 10.5C10.6326 10.5 10.7598 10.5527 10.8536 10.6464C10.9473 10.7402 11 10.8674 11 11ZM14 11V15C14 15.1326 13.9473 15.2598 13.8536 15.3536C13.7598 15.4473 13.6326 15.5 13.5 15.5C13.3674 15.5 13.2402 15.4473 13.1464 15.3536C13.0527 15.2598 13 15.1326 13 15V11C13 10.8674 13.0527 10.7402 13.1464 10.6464C13.2402 10.5527 13.3674 10.5 13.5 10.5C13.6326 10.5 13.7598 10.5527 13.8536 10.6464C13.9473 10.7402 14 10.8674 14 11Z" fill="#0F1117"/>
</svg>
